<?xml version="1.0" encoding="utf-8"?>
<!-- Generator: Adobe Illustrator 24.3.0, SVG Export Plug-In . SVG Version: 6.00 Build 0)  -->
<svg version="1.1" id="Layer_1" xmlns="http://www.w3.org/2000/svg" xmlns:xlink="http://www.w3.org/1999/xlink" x="0px" y="0px"
	 viewBox="0 0 24 24" style="enable-background:new 0 0 24 24;" xml:space="preserve">
<style type="text/css">
	.st0{fill:#D42130;}
	.st1{fill:#058C38;}
	.st2{fill:#D8F5C0;}
	.st3{fill:#221618;}
</style>
<path class="st0" d="M2.5,16c0,0,0-0.1,0-0.1c0.1-0.5,0.1-1,0.1-1.5c0-0.4,0.1-0.8,0.1-1.3c0,0,0-0.1,0-0.1c0.1-0.1,0-0.1,0-0.2
	c0.1-1.6,0.3-3.3,0.4-4.9c0.1-0.9,0.2-1.7,0.2-2.6c0-0.1,0-0.1,0-0.2c0-0.4,0.1-0.7,0.1-1.1c0-0.1,0-0.2,0-0.2c0-0.1,0-0.2,0-0.3
	c0,0,0-0.1,0-0.1c0-0.1,0-0.3,0-0.4c0,0,0-0.1,0-0.1c0.1-0.4,0.1-0.8,0.1-1.3C3.8,1,4.4,0.6,5,0.9C5.2,1,5.3,1.1,5.5,1.2
	c0,0,0,0,0,0c0,0,0.1,0.1,0.1,0.1l0,0c0,0,0,0,0.1,0c0,0,0.1,0.1,0.1,0.1C5.9,1.4,5.9,1.5,6,1.5l0,0c0,0.1,0.1,0.1,0.2,0.1
	c0,0,0.1,0,0.1,0C6.6,1.8,6.8,2,7.1,2.1c0,0,0.1,0,0.1,0c0,0,0,0.1,0.1,0.1C8,2.6,8.8,3,9.5,3.4c0.2,0.2,0.5,0.3,0.7,0.4l0,0
	c0,0.1,0.1,0.1,0.1,0.1C10.5,4,10.5,4,10.6,4c0.3,0.2,0.6,0.3,0.8,0.5c0.5,0.3,1.1,0.6,1.6,0.9c0,0,0,0,0.1,0c0,0,0,0,0,0
	c0.6,0.3,1.1,0.6,1.7,0.9l0,0c0,0,0,0,0.1,0c0.1,0.1,0.1,0.1,0.2,0.1c0.5,0.3,0.9,0.6,1.4,0.8l0,0c0.3,0.2,0.6,0.4,1,0.5l0,0
	c0.1,0.1,0.2,0.1,0.3,0.1l0,0c0,0,0,0,0,0c0,0,0,0,0.1,0c0,0,0.1,0,0.1,0c0.8,0.5,1.7,1,2.6,1.4c0,0.1,0,0.2-0.1,0.3
	c-1.2,3-3.2,5.4-5.8,7.2c-1.4,1-2.9,1.6-4.6,2.1c-1.7,0.5-3.5,0.6-5.3,0.5c-0.8,0-1.6-0.2-2.4-0.3c-0.1-0.1-0.1-0.1-0.1-0.3
	c0.1-0.8,0.1-1.5,0.2-2.3C2.4,16.5,2.4,16.3,2.5,16C2.4,16.1,2.5,16.1,2.5,16z M10.4,13.8c0,0.7,0.3,1.2,0.9,1.5
	c0.4,0.2,0.8,0,0.9-0.4c0.1-0.2,0.1-0.5,0-0.8c-0.3-0.6-0.7-0.9-1.3-1c-0.3-0.1-0.3-0.1-0.4,0.2C10.5,13.6,10.4,13.7,10.4,13.8z
	 M7.8,9.8c0-0.6-0.5-1.2-1-1.5c-0.1-0.1-0.1,0-0.2,0.1C6.5,8.6,6.4,8.9,6.3,9.1c-0.1,0.5,0,1,0.3,1.4c0.3,0.4,0.9,0.3,1.1-0.1
	C7.8,10.2,7.8,10,7.8,9.8z M10.7,8.2c0,0.1,0,0.1,0,0.2c0,0.6,0.5,1.2,1,1.4c0.5,0.1,0.9-0.1,0.9-0.5c0-0.3,0-0.6-0.3-0.9
	c-0.3-0.4-0.7-0.6-1.2-0.6C10.7,7.8,10.8,7.7,10.7,8.2z M5.6,15.7c0,0.4,0.1,0.8,0.3,1C6.2,17,6.5,17,6.7,16.8
	c0.2-0.2,0.4-0.4,0.4-0.6c0.1-0.7-0.2-1.3-0.8-1.8c-0.1-0.1-0.2,0-0.2,0.1C5.8,14.9,5.6,15.3,5.6,15.7z M15,10c-0.4,0-0.4,0-0.4,0.3
	c0,0.1,0,0.1,0,0.2c0.1,0.7,0.3,1.2,1,1.5c0.5,0.2,1-0.1,0.9-0.6c0-0.2,0-0.3-0.1-0.5C16.1,10.3,15.6,10.1,15,10z"/>
<path class="st1" d="M20.2,16.7c-0.1,0.1-0.1,0.1-0.2,0.2c0,0,0,0-0.1,0.1c0,0,0,0,0,0c-0.2,0.2-0.5,0.5-0.7,0.7c0,0,0,0,0,0
	c-0.3,0.3-0.6,0.5-0.9,0.8c0,0,0,0,0,0c0,0-0.1,0-0.1,0.1l0,0l0,0c-0.5,0.4-1,0.8-1.6,1.2c-0.2,0.1-0.3,0.2-0.5,0.3
	c-0.7,0.5-1.5,0.8-2.3,1.3c-0.3,0.1-0.7,0.3-1,0.4c0,0-0.1,0-0.1,0c0,0-0.1,0-0.1,0c-0.5,0.2-1,0.4-1.6,0.5c-0.7,0.2-1.4,0.3-2,0.5
	c-0.1,0-0.2,0.1-0.3,0.1c-0.4,0-0.8,0.1-1.2,0.1c-0.1,0-0.2,0-0.3,0c-0.1,0-0.1,0-0.1,0c-0.1,0-0.1,0-0.2,0c-0.4,0-0.7,0-1.1,0.1
	c-0.3,0-0.5,0-0.8,0c-0.3,0-0.5,0-0.8,0c-0.1,0-0.3,0-0.4,0C3.6,23.1,3.2,23,2.7,23c-0.2-0.1-0.4-0.1-0.6-0.1
	c-0.1-0.1-0.2,0-0.3-0.1c0,0,0,0,0,0c0.1-0.1,0-0.2,0-0.3c0.1-0.5,0.1-1,0.2-1.5c0,0,0.1,0,0.1,0c2.3,0.5,4.6,0.5,6.9,0.1
	c3.7-0.7,6.9-2.4,9.5-5.2c1.5-1.6,2.7-3.4,3.5-5.5c0.2,0.1,0.3,0.2,0.5,0.2c0.2,0.2,0.4,0.3,0.7,0.4c0.2,0.1,0.4,0.1,0.5,0.3
	c0.1,0.2-0.1,0.3-0.2,0.5c0,0,0,0,0,0c0,0,0,0.1,0,0.1c-0.1,0.3-0.2,0.5-0.4,0.8c0,0-0.1,0.1-0.1,0.2c-0.1,0-0.1,0.1-0.1,0.2
	c-0.1,0.1-0.1,0.1-0.1,0.2c-0.6,1.1-1.2,2.1-2,3C20.5,16.3,20.4,16.5,20.2,16.7z"/>
<path class="st2" d="M22,10.3c-0.8,2.1-2,3.9-3.5,5.5c-2.6,2.8-5.8,4.5-9.5,5.2c-2.3,0.4-4.6,0.4-6.9-0.1c0,0-0.1,0-0.1,0
	c-0.1-0.4,0.1-0.8,0.1-1.2c0-0.1,0-0.2,0-0.3c0-0.2,0.1-0.2,0.2-0.2c0.8,0.1,1.6,0.3,2.4,0.3c1.8,0.1,3.5-0.1,5.3-0.5
	c1.6-0.5,3.2-1.1,4.6-2.1c2.7-1.8,4.6-4.2,5.8-7.2c0-0.1,0.1-0.2,0.1-0.3c0.1,0.1,0.2,0.1,0.4,0.2c0.3,0.2,0.6,0.4,1,0.5
	C21.8,10.2,21.9,10.2,22,10.3z"/>
<path class="st3" d="M10.5,13.8c0-0.1,0-0.3,0-0.4c0.1-0.3,0.1-0.3,0.4-0.2c0.6,0.2,1,0.5,1.3,1c0.1,0.2,0.1,0.5,0,0.8
	c-0.1,0.4-0.5,0.5-0.9,0.4C10.7,15,10.5,14.5,10.5,13.8z"/>
<path class="st3" d="M7.9,9.8c0,0.2,0,0.4-0.1,0.6c-0.2,0.5-0.8,0.5-1.1,0.1c-0.3-0.4-0.4-0.9-0.3-1.4c0.1-0.3,0.2-0.5,0.3-0.7
	c0-0.1,0.1-0.1,0.2-0.1C7.4,8.6,7.9,9.2,7.9,9.8z"/>
<path class="st3" d="M10.8,8.2c0-0.5,0-0.4,0.4-0.4c0.5,0.1,0.9,0.3,1.2,0.6c0.2,0.2,0.3,0.5,0.3,0.9c-0.1,0.4-0.4,0.6-0.9,0.5
	c-0.5-0.2-1-0.8-1-1.4C10.8,8.4,10.8,8.3,10.8,8.2z"/>
<path class="st3" d="M5.7,15.7c0-0.4,0.2-0.8,0.5-1.2c0.1-0.1,0.1-0.1,0.2-0.1c0.6,0.5,0.9,1,0.8,1.8c0,0.3-0.2,0.5-0.4,0.6
	C6.5,17,6.2,17,6,16.7C5.8,16.5,5.7,16.1,5.7,15.7z"/>
<path class="st3" d="M15.1,10c0.5,0.1,1.1,0.3,1.4,0.9c0.1,0.1,0.1,0.3,0.1,0.5c0,0.5-0.4,0.8-0.9,0.6c-0.7-0.3-0.9-0.8-1-1.5
	c0-0.1,0-0.1,0-0.2C14.7,10,14.7,10,15.1,10z"/>
</svg>
